<svg xmlns="http://www.w3.org/2000/svg" viewBox="0 0 900 2000"><defs><style>.a{fill:#c2bfbf;}.b{fill:#69b240;}.c{fill:#599636;}</style></defs><title>MongoDB-Leaf</title><path class="a" d="M454.7,1494.7c-10.3,131.4-25.2,227.3-39.8,260.8l-5.8-4.1c36.6,85.4,33,231.4,33,231.4l53.6,17.8s-10.9-141.7,4.3-210.2c4.6-20.7,15.2-38.8,27.6-54.1l-3.1,2.1C472.2,1714.2,457,1600.6,454.7,1494.7Z"/><path class="b" d="M881.1,793.7c-105-463.2-353-615.5-379.7-673.7C472.1,78.9,442.6,6,442.6,6V7A40.5,40.5,0,0,0,440.4.5c-3,40.9-4.6,56.9-43.4,98.3-60.1,47-368.5,305.7-393.6,832-23.4,490.7,354.6,783.2,405.8,820.5l5.8,4.1c14.6-33.5,29.4-129.4,39.8-260.8,2.3,105.9,17.5,219.5,70,243.6l3.1-2.1c8.3-5.8,32.7-23.5,65.3-53.4l2.3-2.1C721.1,1564.6,963,1272.3,881.1,793.7Z"/><path class="c" d="M881.1,793.7c-105-463.2-353-615.5-379.7-673.7C472.1,78.9,442.6,6,442.6,6V7C467.4,103,463.2,877.6,466,970.4c5.9,194,0,380.4-11.3,524.3,2.3,105.9,17.5,219.5,70,243.6l3.1-2.1c8.3-5.8,32.7-23.5,65.3-53.4l2.3-2.1C721.1,1564.6,963,1272.3,881.1,793.7Z"/></svg>